#N canvas 12 18 1280 958 10;
#X obj -128 30 1.33333;
#X obj -22 31 * 0.888889;
#X obj 53 29 * 0.636364;
#X obj 126 28 * 0.416667;
#X obj -167 30 * 1.2;
#X obj -73 31 * 1.4;
#X obj -200 333 *~;
#X obj -175 333 *~;
#X obj -150 333 *~;
#X obj -125 333 *~;
#X obj -100 333 *~;
#X obj -75 333 *~;
#X obj -50 334 *~;
#X obj -24 333 *~;
#X obj 2 333 *~;
#X obj 226 103 float;
#X obj 260 103 + 1;
#X obj 192 103 mod 9;
#X obj 144 171 vline~;
#X obj 104 154 vline~;
#X obj 184 188 vline~;
#X obj 214 205 vline~;
#X obj 460 171 vline~;
#X obj 460 188 vline~;
#X obj 340 137 vline~;
#X obj 380 154 vline~;
#X obj 420 171 vline~;
#X obj 192 120 select 0 1 2 3 4 5 6 7 8;
#X obj 283 103 random 9;
#X obj -211 30 * 1.25;
#X obj 335 104 loadbang;
#X obj -194 452 output~;
#X obj -108 553 1.33333;
#X obj -2 554 * 0.888889;
#X obj 73 552 * 0.636364;
#X obj 146 551 * 0.416667;
#X obj -147 553 * 1.2;
#X obj -53 554 * 1.4;
#X obj -191 553 * 1.25;
#X obj 133 383 loadbang;
#X obj -191 617 *~;
#X obj -170 617 *~;
#X obj -148 617 *~;
#X obj -126 617 *~;
#X obj -104 617 *~;
#X obj -82 617 *~;
#X obj -60 617 *~;
#X obj -38 617 *~;
#X obj -16 617 *~;
#X obj -158 403 pan~;
#X obj -53 402 pan~;
#X obj 52 405 pan~;
#X obj -129 403 pan~;
#X obj -24 402 pan~;
#X obj 81 405 pan~;
#X obj -195 403 pan~;
#X obj -90 402 pan~;
#X obj 18 406 pan~;
#X floatatom 104 349 5 0 0 0 - - -;
#X obj 91 382 lop~;
#X obj 56 382 lop~;
#X obj 19 382 lop~;
#X obj -13 372 lop~;
#X obj -48 374 lop~;
#X obj -85 374 lop~;
#X obj -126 374 lop~;
#X obj -161 376 lop~;
#X obj -198 376 lop~;
#X obj -202 721 random 90;
#X obj -202 738 - 45;
#X obj -174 738 line;
#X obj -202 687 loadbang;
#X obj -123 721 random 90;
#X obj -123 738 - 45;
#X obj -95 738 line;
#X obj -44 721 random 90;
#X obj -44 738 - 45;
#X obj -16 738 line;
#X obj 35 721 random 90;
#X obj 35 738 - 45;
#X obj 63 738 line;
#X obj 35 755 pack 0 50000;
#X obj -44 755 pack 0 50000;
#X obj -123 755 pack 0 50000;
#X obj -202 755 pack 0 50000;
#X obj -202 704 metro 18000;
#X obj 128 102 osc~;
#X obj 85 108 osc~;
#X obj 50 110 osc~;
#X obj 9 108 osc~;
#X obj -28 113 osc~;
#X obj -79 113 osc~;
#X obj -134 112 osc~;
#X obj -166 112 osc~;
#X obj -201 112 osc~;
#X obj 32 592 osc~;
#X obj 4 592 osc~;
#X obj -24 592 osc~;
#X obj -52 592 osc~;
#X obj -79 592 osc~;
#X obj -107 592 osc~;
#X obj -135 592 osc~;
#X obj -163 592 osc~;
#X obj -191 592 osc~;
#X msg 79 322 2100;
#X obj -192 75 +~;
#X obj -160 75 +~;
#X obj -121 73 +~;
#X obj -55 72 +~;
#X obj -23 72 +~;
#X obj 10 69 +~;
#X obj 61 65 +~;
#X obj 107 71 +~;
#X obj 40 67 +~;
#X obj 261 27 * 1;
#X obj 281 550 * 1;
#X obj 194 26 * 0.818182;
#X obj 213 551 * 0.818182;
#X text 218 4 9/11;
#X text 1 0 8/9;
#X text 74 0 7/11;
#X text -64 -4 8/7;
#X text -119 -5 4/3;
#X text -202 12 5/4;
#X text -165 -9 6/5;
#X text 144 3 5/12;
#X obj -202 775 random 90;
#X obj -174 792 line;
#X obj -123 775 random 90;
#X obj -123 792 - 45;
#X obj -95 792 line;
#X obj -44 775 random 90;
#X obj -44 792 - 45;
#X obj -16 792 line;
#X obj 35 775 random 90;
#X obj 35 792 - 45;
#X obj 63 792 line;
#X obj 35 809 pack 0 50000;
#X obj -44 809 pack 0 50000;
#X obj -123 809 pack 0 50000;
#X obj -202 809 pack 0 50000;
#X obj -202 792 - 45;
#X obj 114 775 random 90;
#X obj 114 792 - 45;
#X obj 142 792 line;
#X obj 114 809 pack 0 50000;
#X obj 222 86 metro;
#X msg 248 58 stop;
#X obj 227 58 bng 15 250 50 0 empty empty empty 17 7 0 10 -262144 -1
-1;
#X obj 149 612 float;
#X obj 183 612 + 1;
#X obj 115 612 mod 9;
#X obj 67 680 vline~;
#X obj 27 663 vline~;
#X obj 107 697 vline~;
#X obj 137 714 vline~;
#X obj 383 680 vline~;
#X obj 383 697 vline~;
#X obj 263 646 vline~;
#X obj 303 663 vline~;
#X obj 343 680 vline~;
#X obj 115 629 select 0 1 2 3 4 5 6 7 8;
#X obj 206 612 random 9;
#X obj 258 613 loadbang;
#X obj 145 595 metro;
#X msg 423 680 1 20000 \, 2 10000 10000 \, 0 20000 10000;
#X msg 177 714 1 20000 \, 2 10000 10000 \, 0 20000 10000;
#X msg 147 697 1 20000 \, 2 10000 10000 \, 0 20000 10000;
#X msg 107 680 1 20000 \, 2 10000 10000 \, 0 20000 10000;
#X msg 67 663 1 20000 \, 2 10000 10000 \, 0 20000 10000;
#X msg 27 646 1 20000 \, 2 10000 10000 \, 0 20000 10000;
#X msg 263 629 1 20000 \, 2 10000 10000 \, 0 20000 10000;
#X msg 303 646 1 20000 \, 2 10000 10000 \, 0 20000 10000;
#X msg 343 663 1 20000 \, 2 10000 10000 \, 0 20000 10000;
#X obj -211 -29 loadbang;
#X msg 206 575 stop;
#X obj 182 575 bng 15 250 50 0 empty empty empty 17 7 0 10 -262144
-1 -1;
#X msg 127 502 open out.wav;
#X obj 127 485 writesf~ 2;
#X msg 127 468 start;
#X msg 191 485 stop;
#X obj 166 468 del 100;
#X obj 127 453 bng 15 250 50 0 empty empty record 17 7 0 10 -262144
-1 -1;
#X msg 380 137 0.5 30000 \, 1 10000 10000 \, 0 20000 10000;
#X msg 420 154 0.5 30000 \, 1 10000 10000 \, 0 20000 10000;
#X msg 500 171 0.5 30000 \, 1 10000 10000 \, 0 20000 10000;
#X msg 254 205 0.5 30000 \, 1 10000 10000 \, 0 20000 10000;
#X msg 224 188 0.5 30000 \, 1 10000 10000 \, 0 20000 10000;
#X msg 184 171 0.5 30000 \, 1 10000 10000 \, 0 20000 10000;
#X msg 144 154 0.5 30000 \, 1 10000 10000 \, 0 20000 10000;
#X msg 104 137 0.5 30000 \, 1 10000 10000 \, 0 20000 10000;
#X obj -195 238 *~;
#X obj -170 238 *~;
#X obj -145 238 *~;
#X obj -120 238 *~;
#X obj -95 238 *~;
#X obj -70 238 *~;
#X obj -45 239 *~;
#X obj -19 238 *~;
#X obj 7 238 *~;
#X obj 458 246 hsl 128 15 0 1 0 1 empty empty 5/4 6 8 0 10 -262144
-1 -1 11500 1;
#X obj 458 263 hsl 128 15 0 1 0 1 empty empty 6/5 6 8 0 10 -262144
-1 -1 11500 1;
#X obj 458 280 hsl 128 15 0 1 0 1 empty empty 4/3 6 8 0 10 -262144
-1 -1 11500 1;
#X obj 458 297 hsl 128 15 0 1 0 1 empty empty 8/7 6 8 0 10 -262144
-1 -1 11500 1;
#X obj 458 314 hsl 128 15 0 1 0 1 empty empty 8/9 6 8 0 10 -262144
-1 -1 11500 1;
#X obj 458 331 hsl 128 15 0 1 0 1 empty empty 7/11 6 8 0 10 -262144
-1 -1 11500 1;
#X obj 458 348 hsl 128 15 0 1 0 1 empty empty 5/12 6 8 0 10 -262144
-1 -1 11500 1;
#X obj 458 365 hsl 128 15 0 1 0 1 empty empty 9/11 6 8 0 10 -262144
-1 -1 11500 1;
#X obj 458 382 hsl 128 15 0 1 0 1 empty empty 1/1 6 8 0 10 -262144
-1 -1 12700 1;
#X obj 194 252 pack 0 5000;
#X obj 194 269 line;
#X obj 194 290 pack 0 5000;
#X obj 194 307 line;
#X obj 194 328 pack 0 5000;
#X obj 194 345 line;
#X obj 269 252 pack 0 5000;
#X obj 269 269 line;
#X obj 269 290 pack 0 5000;
#X obj 269 307 line;
#X obj 269 328 pack 0 5000;
#X obj 269 345 line;
#X obj 345 252 pack 0 5000;
#X obj 345 269 line;
#X obj 345 290 pack 0 5000;
#X obj 345 307 line;
#X obj 345 328 pack 0 5000;
#X obj 345 345 line;
#X obj 17 147 *~;
#X obj -9 147 *~;
#X obj -35 148 *~;
#X obj -60 147 *~;
#X obj -85 147 *~;
#X obj -110 147 *~;
#X obj -135 147 *~;
#X obj -160 147 *~;
#X obj -192 147 *~;
#X msg -211 -10 400;
#X msg -193 521 100;
#X obj 256 86 shuffle 1000 4000;
#X obj 179 595 shuffle 1000 4000;
#X msg 340 120 0.5 30000 \, 1 10000 10000 \, 0.2 20000 10000;
#X text 503 102 1/1 vline~;
#X connect 0 0 107 0;
#X connect 1 0 109 0;
#X connect 2 0 110 0;
#X connect 3 0 113 0;
#X connect 4 0 106 0;
#X connect 5 0 108 0;
#X connect 6 0 67 0;
#X connect 7 0 66 0;
#X connect 8 0 65 0;
#X connect 9 0 64 0;
#X connect 10 0 63 0;
#X connect 11 0 62 0;
#X connect 12 0 61 0;
#X connect 13 0 60 0;
#X connect 14 0 59 0;
#X connect 15 0 16 0;
#X connect 15 0 17 0;
#X connect 16 0 15 1;
#X connect 17 0 27 0;
#X connect 18 0 7 1;
#X connect 19 0 6 1;
#X connect 20 0 8 1;
#X connect 21 0 9 1;
#X connect 22 0 10 1;
#X connect 23 0 11 1;
#X connect 24 0 14 1;
#X connect 25 0 13 1;
#X connect 26 0 12 1;
#X connect 27 0 190 0;
#X connect 27 1 189 0;
#X connect 27 2 188 0;
#X connect 27 3 187 0;
#X connect 27 4 186 0;
#X connect 27 5 185 0;
#X connect 27 6 240 0;
#X connect 27 7 183 0;
#X connect 27 8 184 0;
#X connect 28 0 16 1;
#X connect 29 0 105 0;
#X connect 30 0 146 0;
#X connect 31 0 178 0;
#X connect 31 1 178 1;
#X connect 32 0 101 0;
#X connect 33 0 99 0;
#X connect 34 0 98 0;
#X connect 35 0 97 0;
#X connect 36 0 102 0;
#X connect 37 0 100 0;
#X connect 38 0 103 0;
#X connect 39 0 104 0;
#X connect 39 0 237 0;
#X connect 40 0 105 1;
#X connect 40 0 227 1;
#X connect 41 0 106 1;
#X connect 41 0 228 1;
#X connect 42 0 107 1;
#X connect 42 0 229 1;
#X connect 43 0 108 1;
#X connect 43 0 230 1;
#X connect 44 0 109 1;
#X connect 44 0 231 1;
#X connect 45 0 110 1;
#X connect 45 0 232 1;
#X connect 46 0 113 1;
#X connect 46 0 233 1;
#X connect 47 0 111 1;
#X connect 47 0 234 1;
#X connect 48 0 112 1;
#X connect 48 0 235 1;
#X connect 49 0 31 0;
#X connect 49 1 31 1;
#X connect 50 0 31 0;
#X connect 50 1 31 1;
#X connect 51 0 31 0;
#X connect 51 1 31 1;
#X connect 52 0 31 0;
#X connect 52 1 31 1;
#X connect 53 0 31 0;
#X connect 53 1 31 1;
#X connect 54 0 31 0;
#X connect 54 1 31 1;
#X connect 55 0 31 0;
#X connect 55 1 31 1;
#X connect 56 0 31 0;
#X connect 56 1 31 1;
#X connect 57 0 31 0;
#X connect 57 0 31 1;
#X connect 57 1 31 1;
#X connect 57 1 31 0;
#X connect 58 0 59 1;
#X connect 58 0 60 1;
#X connect 58 0 61 1;
#X connect 58 0 62 1;
#X connect 58 0 63 1;
#X connect 58 0 64 1;
#X connect 58 0 65 1;
#X connect 58 0 66 1;
#X connect 58 0 67 1;
#X connect 59 0 54 0;
#X connect 60 0 51 0;
#X connect 61 0 57 0;
#X connect 62 0 53 0;
#X connect 63 0 50 0;
#X connect 64 0 56 0;
#X connect 65 0 52 0;
#X connect 66 0 49 0;
#X connect 67 0 55 0;
#X connect 68 0 69 0;
#X connect 69 0 84 0;
#X connect 70 0 55 1;
#X connect 71 0 85 0;
#X connect 72 0 73 0;
#X connect 73 0 83 0;
#X connect 74 0 49 1;
#X connect 75 0 76 0;
#X connect 76 0 82 0;
#X connect 77 0 52 1;
#X connect 78 0 79 0;
#X connect 79 0 81 0;
#X connect 80 0 56 1;
#X connect 81 0 80 0;
#X connect 82 0 77 0;
#X connect 83 0 74 0;
#X connect 84 0 70 0;
#X connect 85 0 68 0;
#X connect 85 0 72 0;
#X connect 85 0 75 0;
#X connect 85 0 78 0;
#X connect 85 0 126 0;
#X connect 85 0 128 0;
#X connect 85 0 131 0;
#X connect 85 0 134 0;
#X connect 85 0 142 0;
#X connect 86 0 227 0;
#X connect 87 0 228 0;
#X connect 88 0 229 0;
#X connect 89 0 230 0;
#X connect 90 0 231 0;
#X connect 91 0 232 0;
#X connect 92 0 233 0;
#X connect 93 0 234 0;
#X connect 94 0 235 0;
#X connect 95 0 48 0;
#X connect 96 0 47 0;
#X connect 97 0 46 0;
#X connect 98 0 45 0;
#X connect 99 0 44 0;
#X connect 100 0 43 0;
#X connect 101 0 42 0;
#X connect 102 0 41 0;
#X connect 103 0 40 0;
#X connect 104 0 58 0;
#X connect 105 0 94 0;
#X connect 106 0 93 0;
#X connect 107 0 92 0;
#X connect 108 0 91 0;
#X connect 109 0 90 0;
#X connect 110 0 89 0;
#X connect 111 0 87 0;
#X connect 112 0 86 0;
#X connect 113 0 88 0;
#X connect 114 0 112 0;
#X connect 115 0 95 0;
#X connect 116 0 111 0;
#X connect 117 0 96 0;
#X connect 126 0 141 0;
#X connect 127 0 50 1;
#X connect 128 0 129 0;
#X connect 129 0 139 0;
#X connect 130 0 53 1;
#X connect 131 0 132 0;
#X connect 132 0 138 0;
#X connect 133 0 57 1;
#X connect 134 0 135 0;
#X connect 135 0 137 0;
#X connect 136 0 51 1;
#X connect 137 0 136 0;
#X connect 138 0 133 0;
#X connect 139 0 130 0;
#X connect 140 0 127 0;
#X connect 141 0 140 0;
#X connect 142 0 143 0;
#X connect 143 0 145 0;
#X connect 144 0 54 1;
#X connect 145 0 144 0;
#X connect 146 0 15 0;
#X connect 146 0 28 0;
#X connect 146 0 238 0;
#X connect 147 0 146 0;
#X connect 148 0 146 0;
#X connect 149 0 150 0;
#X connect 149 0 151 0;
#X connect 150 0 149 1;
#X connect 151 0 161 0;
#X connect 152 0 41 1;
#X connect 153 0 40 1;
#X connect 154 0 42 1;
#X connect 155 0 43 1;
#X connect 156 0 47 1;
#X connect 157 0 48 1;
#X connect 158 0 44 1;
#X connect 159 0 45 1;
#X connect 160 0 46 1;
#X connect 161 0 170 0;
#X connect 161 1 169 0;
#X connect 161 2 168 0;
#X connect 161 3 167 0;
#X connect 161 4 166 0;
#X connect 161 5 165 0;
#X connect 161 6 171 0;
#X connect 161 7 172 0;
#X connect 161 8 173 0;
#X connect 162 0 150 1;
#X connect 163 0 164 0;
#X connect 164 0 149 0;
#X connect 164 0 162 0;
#X connect 164 0 239 0;
#X connect 165 0 157 0;
#X connect 166 0 156 0;
#X connect 167 0 155 0;
#X connect 168 0 154 0;
#X connect 169 0 152 0;
#X connect 170 0 153 0;
#X connect 171 0 158 0;
#X connect 172 0 159 0;
#X connect 173 0 160 0;
#X connect 174 0 236 0;
#X connect 175 0 164 0;
#X connect 176 0 164 0;
#X connect 177 0 178 0;
#X connect 179 0 178 0;
#X connect 180 0 178 0;
#X connect 181 0 179 0;
#X connect 182 0 181 0;
#X connect 182 0 177 0;
#X connect 183 0 25 0;
#X connect 184 0 26 0;
#X connect 185 0 23 0;
#X connect 186 0 22 0;
#X connect 187 0 21 0;
#X connect 188 0 20 0;
#X connect 189 0 18 0;
#X connect 190 0 19 0;
#X connect 191 0 6 0;
#X connect 192 0 7 0;
#X connect 193 0 8 0;
#X connect 194 0 9 0;
#X connect 195 0 10 0;
#X connect 196 0 11 0;
#X connect 197 0 12 0;
#X connect 198 0 13 0;
#X connect 199 0 14 0;
#X connect 200 0 209 0;
#X connect 201 0 215 0;
#X connect 202 0 221 0;
#X connect 203 0 211 0;
#X connect 204 0 217 0;
#X connect 205 0 223 0;
#X connect 206 0 213 0;
#X connect 207 0 219 0;
#X connect 208 0 225 0;
#X connect 209 0 210 0;
#X connect 210 0 191 1;
#X connect 211 0 212 0;
#X connect 212 0 194 1;
#X connect 213 0 214 0;
#X connect 214 0 197 1;
#X connect 215 0 216 0;
#X connect 216 0 192 1;
#X connect 217 0 218 0;
#X connect 218 0 195 1;
#X connect 219 0 220 0;
#X connect 220 0 198 1;
#X connect 221 0 222 0;
#X connect 222 0 193 1;
#X connect 223 0 224 0;
#X connect 224 0 196 1;
#X connect 225 0 226 0;
#X connect 226 0 199 1;
#X connect 227 0 199 0;
#X connect 228 0 198 0;
#X connect 229 0 197 0;
#X connect 230 0 196 0;
#X connect 231 0 195 0;
#X connect 232 0 194 0;
#X connect 233 0 193 0;
#X connect 234 0 192 0;
#X connect 235 0 191 0;
#X connect 236 0 0 0;
#X connect 236 0 1 0;
#X connect 236 0 2 0;
#X connect 236 0 3 0;
#X connect 236 0 4 0;
#X connect 236 0 5 0;
#X connect 236 0 29 0;
#X connect 236 0 114 0;
#X connect 236 0 116 0;
#X connect 237 0 32 0;
#X connect 237 0 33 0;
#X connect 237 0 34 0;
#X connect 237 0 35 0;
#X connect 237 0 36 0;
#X connect 237 0 37 0;
#X connect 237 0 38 0;
#X connect 237 0 115 0;
#X connect 237 0 117 0;
#X connect 238 0 146 1;
#X connect 239 0 164 1;
#X connect 240 0 24 0;
